<svg width="16" height="16" viewBox="0 0 16 16" fill="none" xmlns="http://www.w3.org/2000/svg">
<rect x="0.5" y="0.5" width="15" height="15" rx="7.5" fill="#141414" stroke="#1E1E1E"/>
<path d="M15.674 8.08008C15.674 9.27679 14.7039 10.2469 13.5072 10.2469C12.3105 10.2469 11.3403 9.27679 11.3403 8.08008C11.3403 6.88337 12.3105 5.91324 13.5072 5.91324C14.7039 5.91324 15.674 6.88337 15.674 8.08008Z" fill="#DF5C9A"/>
<path d="M4.86008 8.10005C4.86008 9.28558 3.89901 10.2466 2.71349 10.2466C1.52796 10.2466 0.566895 9.28558 0.566895 8.10005C0.566895 6.91452 1.52796 5.95346 2.71349 5.95346C3.89901 5.95346 4.86008 6.91452 4.86008 8.10005Z" fill="#75ABC7"/>
<path d="M10.2468 8.10036C10.2468 9.28589 9.28573 10.2469 8.1002 10.2469C6.91467 10.2469 5.95361 9.28589 5.95361 8.10036C5.95361 6.91483 6.91467 5.95377 8.1002 5.95377C9.28573 5.95377 10.2468 6.91483 10.2468 8.10036Z" fill="white"/>
</svg>
