<svg width="373" height="107" viewBox="0 0 373 107" fill="none" xmlns="http://www.w3.org/2000/svg">
<path d="M373 53.5C373 83.0472 349.047 107 319.5 107C289.953 107 266 83.0472 266 53.5C266 23.9528 289.953 0 319.5 0C349.047 0 373 23.9528 373 53.5Z" fill="#DF5C9A"/>
<path d="M106 54C106 83.2711 82.2711 107 53 107C23.7289 107 0 83.2711 0 54C0 24.7289 23.7289 1 53 1C82.2711 1 106 24.7289 106 54Z" fill="#75ABC7"/>
<path d="M239 54C239 83.2711 215.271 107 186 107C156.729 107 133 83.2711 133 54C133 24.7289 156.729 1 186 1C215.271 1 239 24.7289 239 54Z" fill="white"/>
</svg>
